# xmcd
#
# Track frame offsets: 
#        150
#        11712
#        23614
#        34297
#        45419
#        55608
#        69443
#        82760
#        93532
#        105619
#        117614
#        129300
#        140494
#        152557
#        165694
#        176689
#        187317
#        199664
#        213454
#        224400
#        236089
#        250092
#        262172
#        272306
#        286213
#        297743
#        308852
#        320664
#        330431
#
# Disc length: 4578 seconds
#
# Revision: 0
# Processed by: cddbd v1.5.1PL0 Copyright (c) Steve Scherf et al.
# Submitted via: ExactAudioCopy v0.95a4
#
DISCID=af11e01d
DTITLE=Tex Ritter - High Noon - Disc 2
DYEAR=1900
DGENRE=Country
TTITLE0=I've Had Enough Of Your Two Timin'
TTITLE1=Never Mind My Tears
TTITLE2=Waitin' And Worryin'
TTITLE3=I Just Called To Say Goodbye
TTITLE4=Careless Hands
TTITLE5=Ol' Shorty
TTITLE6=Nobody's Fool
TTITLE7=I've Got Five Dollars And It's Saturday Night
TTITLE8=Coal Smoke, Valve Oil, And Steam
TTITLE9=Boiled Crawfish (At The Maurice)
TTITLE10=Stay Away From My Heart
TTITLE11=Wearin' Out Your Walkin' Shoes
TTITLE12=Big Blue Diamonds
TTITLE13=From The World Of Love
TTITLE14=Three Handed Woman
TTITLE15=You're Always Brand New
TTITLE16=There's No One To Cry Over Me
TTITLE17=My Bucket's Been Fixed
TTITLE18=If I Could Steal You From Somebody Else
TTITLE19=Rock All The Babies To Sleep
TTITLE20=The Letter Edged In Black
TTITLE21=When It's Lamplighting Time In The Valley
TTITLE22=Go On, Get Out
TTITLE23=Hills Of Pride
TTITLE24=Everybody Likes A Little Lovin'
TTITLE25=Love You As Big As Texas
TTITLE26=My Woman Ain't Pretty
TTITLE27=Turn Around, Boy
TTITLE28=High On A Mountain Top
EXTD=
EXTT0=
EXTT1=
EXTT2=
EXTT3=
EXTT4=
EXTT5=
EXTT6=
EXTT7=
EXTT8=
EXTT9=
EXTT10=
EXTT11=
EXTT12=
EXTT13=
EXTT14=
EXTT15=
EXTT16=
EXTT17=
EXTT18=
EXTT19=
EXTT20=
EXTT21=
EXTT22=
EXTT23=
EXTT24=
EXTT25=
EXTT26=
EXTT27=
EXTT28=
PLAYORDER=
